<?xml version="1.0" encoding="iso-8859-1"?>
<!-- Uploaded to: SVG Repo, www.svgrepo.com, Generator: SVG Repo Mixer Tools -->
<svg version="1.1" id="Layer_1" xmlns="http://www.w3.org/2000/svg" xmlns:xlink="http://www.w3.org/1999/xlink" 
	 viewBox="0 0 512 512" xml:space="preserve">
<path style="fill:#F00000;" d="M256,0C114.616,0,0,114.616,0,256s114.616,256,256,256s256-114.616,256-256S397.384,0,256,0z"/>
<g>
	<path style="fill:#FFFFFF;" d="M256,466.424c-116.032,0-210.432-94.4-210.432-210.424c0-116.032,94.4-210.432,210.432-210.432
		S466.432,139.968,466.432,256C466.432,372.024,372.032,466.424,256,466.424z M256,61.576C148.792,61.576,61.568,148.792,61.568,256
		c0,107.2,87.216,194.424,194.432,194.424S450.432,363.208,450.432,256S363.208,61.576,256,61.576z"/>
	<path style="fill:#FFFFFF;" d="M347.352,201.248v131.848l-182.704,0.136V201.248"/>
</g>
<path d="M199.496,209.728c0,15.536-12.648,28.136-28.248,28.136S143,225.264,143,209.728v-34.152h226.008v34.152
	c0,15.536-12.648,28.136-28.248,28.136c-15.6,0-28.248-12.6-28.248-28.136"/>
<path d="M199.496,209.728c0,15.536,12.648,28.136,28.248,28.136S256,225.264,256,209.728"/>
<path d="M256,209.728c0,15.536,12.648,28.136,28.248,28.136c15.6,0,28.248-12.6,28.248-28.136"/>
<rect x="143.104" y="326.176" width="225.84" height="14.128"/>
<rect x="227.528" y="260.84" width="56.944" height="65.328"/>
<polyline points="255.816,139.704 179.096,139.704 142.992,175.576 368.968,175.576 332.864,139.704 246.224,139.704 "/>
</svg>