<?xml version="1.0" encoding="iso-8859-1"?>
<!-- Uploaded to: SVG Repo, www.svgrepo.com, Generator: SVG Repo Mixer Tools -->
<svg height="800px" width="800px" version="1.1" id="Layer_1" xmlns="http://www.w3.org/2000/svg" xmlns:xlink="http://www.w3.org/1999/xlink" 
	 viewBox="0 0 512.001 512.001" xml:space="preserve">
<path style="fill:#FC4C59;" d="M419.667,58.411l-14.809,37.338l22.363,33.368c3.51,5.237-0.509,12.225-6.801,11.827l-40.087-2.546
	l-24.824,31.579c-3.896,4.957-11.785,3.294-13.349-2.814l-9.965-38.912L294.49,114.4c-5.918-2.174-6.774-10.19-1.449-13.565
	l33.927-21.502l1.521-40.139c0.239-6.3,7.598-9.592,12.453-5.57l30.934,25.622l38.645-10.957
	C416.588,46.568,421.991,52.55,419.667,58.411z"/>
<g>
	<path style="fill:#3CC247;" d="M450.051,218.319l-12.471,19.494l8.989,21.325c1.411,3.347-1.629,6.859-5.144,5.943l-22.394-5.837
		l-17.504,15.138c-2.747,2.376-7.026,0.57-7.241-3.055l-1.368-23.102l-19.806-11.969c-3.109-1.879-2.714-6.507,0.669-7.831
		l21.548-8.44l5.264-22.535c0.826-3.537,5.35-4.591,7.655-1.784l14.685,17.885l23.059-1.958
		C449.607,211.284,452.009,215.259,450.051,218.319z"/>
	<path style="fill:#3CC247;" d="M274.624,12.916l-7.464,21.905l13.813,18.568c2.168,2.914,0.053,7.049-3.578,6.997l-23.139-0.33
		l-13.39,18.874c-2.102,2.962-6.688,2.229-7.761-1.241l-6.836-22.109L204.18,48.68c-3.467-1.083-4.187-5.671-1.218-7.765
		l18.915-13.334L221.615,4.44c-0.041-3.632,4.101-5.735,7.008-3.558l18.526,13.868l21.927-7.399
		C272.516,6.19,275.795,9.479,274.624,12.916z"/>
</g>
<g>
	<path style="fill:#FFDB6C;" d="M259.313,145.099C161.155,238.252,95.21,365.021,79.916,506.965
		c-0.596,5.536,7.335,7.079,8.844,1.72C124.122,382.99,200.332,274.4,302.158,198.151L259.313,145.099z"/>
	<path style="fill:#FFDB6C;" d="M172.593,69.651C97.108,149.498,67.409,266.228,61.256,381.986c-0.24,4.514,6.259,5.417,7.246,1.005
		c23.139-103.466,61.96-205.91,141.164-272.212L172.593,69.651z"/>
	<path style="fill:#FFDB6C;" d="M330.942,247.401c-93.82,57.194-142.468,109.174-183.978,213.688
		c-1.668,4.202,4.015,6.492,6.726,2.875c64.274-85.749,108.361-123.986,202.208-167.135L330.942,247.401z"/>
</g>
<path style="fill:#E83A64;" d="M412.564,107.246l-14.689-0.933c-6.307-0.401-12.407,2.328-16.312,7.296l-10.522,13.386
	c-7.195,9.153-21.761,6.082-24.649-5.196l-4.225-16.494c-1.568-6.122-6.048-11.081-11.979-13.259l-14.739-5.414l-22.408,14.202
	c-5.326,3.375-4.468,11.391,1.449,13.565l37.704,13.85l9.966,38.912c1.564,6.108,9.453,7.771,13.349,2.814l24.824-31.579
	l40.087,2.546c6.292,0.4,10.311-6.589,6.801-11.827L412.564,107.246z"/>
<g>
	<path style="fill:#2DA85F;" d="M438.996,241.176l-2.156-0.562c-6.115-1.594-12.624-0.077-17.404,4.057l0,0
		c-6.784,5.867-17.351,1.409-17.882-7.545l0,0c-0.373-6.309-3.827-12.03-9.237-15.298l-0.669-0.404l-17.873,7.001
		c-3.381,1.325-3.777,5.953-0.669,7.831l19.806,11.969l1.368,23.102c0.215,3.626,4.494,5.431,7.241,3.055l17.504-15.138
		l22.394,5.838c3.515,0.916,6.555-2.596,5.144-5.943L438.996,241.176z"/>
	<path style="fill:#2DA85F;" d="M268.945,37.221L268.945,37.221c-6.319-0.09-12.278,2.935-15.934,8.089l0,0
		c-5.19,7.316-16.514,5.505-19.165-3.064l0,0c-1.867-6.038-6.585-10.769-12.617-12.655l-1.528-0.478l-16.74,11.801
		c-2.969,2.093-2.249,6.681,1.218,7.765l22.088,6.902l6.836,22.109c1.073,3.47,5.66,4.203,7.761,1.241l13.39-18.874l23.14,0.33
		c3.632,0.052,5.746-4.084,3.578-6.997L268.945,37.221z"/>
</g>
<g>
	<path style="fill:#FFB966;" d="M287.135,179.549C198.012,246.992,128.774,339.31,89.727,446.174
		c-4.297,19.907-7.593,40.187-9.812,60.791c-0.596,5.536,7.335,7.079,8.844,1.72C124.121,382.99,200.33,274.4,302.156,198.151
		L287.135,179.549z"/>
	<path style="fill:#FFB966;" d="M198.155,98.009C124.588,161.244,86.477,256.056,63.284,353.246
		c-0.845,9.572-1.519,19.159-2.028,28.741c-0.24,4.514,6.259,5.417,7.246,1.005c23.139-103.466,61.96-205.91,141.164-272.212
		L198.155,98.009z"/>
	<path style="fill:#FFB966;" d="M346.845,278.898c-84.726,39.394-128.526,75.26-185.063,147.812
		c-5.075,10.814-9.995,22.239-14.817,34.38c-1.668,4.202,4.015,6.492,6.726,2.875c64.274-85.749,108.361-123.986,202.208-167.135
		L346.845,278.898z"/>
</g>
</svg>