<?xml version="1.0" encoding="iso-8859-1"?>
<!-- Uploaded to: SVG Repo, www.svgrepo.com, Generator: SVG Repo Mixer Tools -->
<svg height="800px" width="800px" version="1.1" id="Layer_1" xmlns="http://www.w3.org/2000/svg" xmlns:xlink="http://www.w3.org/1999/xlink" 
	 viewBox="0 0 511.999 511.999" xml:space="preserve">
<path style="fill:#F4B2B0;" d="M317.139,52.391c-5.505-5.48-11.414-10.439-17.7-14.798c-20.941-14.576-46.059-22.697-74.615-22.697
	c-28.541,0-53.673,8.121-74.613,22.697c-6.964,4.841-13.47,10.398-19.483,16.62C98.868,87.14,80.83,138.366,80.83,198.754
	c0,70.935,57.16,115.987,57.16,115.987l35.588-30.254c-24.315-16.458-40.299-44.295-40.299-75.867v-63.361H316.37v63.363
	c0,31.57-15.981,59.407-40.294,75.864l35.597,30.257c0,0,57.148-42.883,57.148-115.987
	C368.821,137.261,350.105,85.241,317.139,52.391z"/>
<path style="fill:#B3404A;" d="M447.499,383.866c-1.856-38.756-30.544-69.114-65.308-69.114c-8.225,0-14.895,6.669-14.895,14.895
	c0,8.227,6.67,14.895,14.895,14.895c18.527,0,34.476,18.279,35.552,40.749c0.563,11.764-2.117,21.747-8.962,33.376
	c-7.984,13.564-46.577,42.253-73.853,60.58c-27.38-18.397-66.112-47.149-74.043-60.594c-6.84-11.593-9.518-21.571-8.955-33.362
	c1.077-22.469,17.025-40.749,35.552-40.749c20.351,0,35.966,16.805,36.276,17.14c5.474,6.095,14.851,6.628,20.977,1.18
	c6.149-5.465,6.703-14.88,1.236-21.029c-0.578-0.649-8.922-9.874-22.599-17.38c12.303-10.236,60.343-54.752,60.343-125.696
	c0-65.165-19.91-120.891-56.07-156.921c-6.165-6.137-12.799-11.682-19.699-16.468C283.765,8.535,255.799,0,224.824,0
	c-30.973,0-58.939,8.535-83.117,25.364c-7.714,5.365-15.013,11.588-21.684,18.492c-34.879,36.048-54.089,91.059-54.089,154.9
	c0,46.278,21.616,82.19,39.508,103.994c-25.49,23.835-41.045,58.978-41.045,98.813v86.635c0,8.227,6.67,14.895,14.895,14.895
	h145.532c8.225,0,14.895-6.669,14.895-14.895c0-8.227-6.67-14.895-14.895-14.895H94.188v-71.74
	c0-31.839,11.907-59.269,31.721-77.516c1.563,1.36,2.574,2.169,2.861,2.394c2.708,2.136,5.967,3.197,9.219,3.197
	c3.439,0,6.873-1.186,9.649-3.547l27.5-23.378c14.843,7.871,31.749,12.35,49.689,12.35s34.849-4.48,49.692-12.353l14.201,12.07
	c-0.413-0.007-0.819-0.03-1.236-0.03c-34.764,0-63.452,30.358-65.308,69.117c-1.101,23.05,6.922,39.532,13.053,49.923
	c14.833,25.146,78.892,67.557,91.583,75.805c2.467,1.604,5.292,2.406,8.115,2.406c2.823,0,5.645-0.801,8.112-2.403
	c12.648-8.213,76.493-50.469,91.416-75.818C440.583,423.368,448.601,406.867,447.499,383.866z M138.382,294.861
	c-14.718-14.95-42.657-49.477-42.657-96.105c0-56.068,16.233-103.723,45.715-134.191c5.334-5.522,11.146-10.482,17.281-14.746
	c19.091-13.29,41.333-20.028,66.103-20.028c24.772,0,47.014,6.739,66.126,20.043c5.481,3.801,10.757,8.213,15.674,13.109
	c30.504,30.394,47.301,78.626,47.301,135.813c0,47.76-27.872,81.705-42.499,96.229l-12.128-10.307
	c12.071-11.818,21.069-26.287,26.399-42.152c0.265-0.786,0.548-1.564,0.795-2.358c0.043-0.137,0.076-0.279,0.119-0.416
	c2.513-8.2,4.068-16.814,4.516-25.717c0.091-1.796,0.137-3.602,0.137-5.413v-63.363c0-8.227-6.67-14.895-14.895-14.895H133.279
	c-8.225,0-14.895,6.669-14.895,14.895v63.363c0,1.811,0.046,3.617,0.137,5.413c0.45,8.952,2.018,17.614,4.556,25.854
	c0.028,0.091,0.049,0.183,0.077,0.274c0.262,0.845,0.563,1.671,0.846,2.507c5.337,15.81,14.319,30.227,26.354,42.009
	L138.382,294.861z M224.824,285.273c-18.46,0-35.413-6.561-48.658-17.471c-0.04-0.033-0.082-0.067-0.122-0.101
	c-4.673-3.865-8.879-8.273-12.525-13.126c-0.07-0.094-0.14-0.188-0.209-0.282c-0.691-0.928-1.364-1.869-2.014-2.829
	c-0.022-0.034-0.045-0.07-0.067-0.104c-1.323-1.963-2.556-3.99-3.697-6.076c-0.031-0.058-0.067-0.115-0.098-0.173
	c-0.377-0.694-0.727-1.405-1.083-2.112c-0.293-0.584-0.588-1.165-0.867-1.756c-0.286-0.606-0.56-1.221-0.831-1.837
	c-0.329-0.751-0.648-1.507-0.953-2.27c-0.207-0.514-0.416-1.026-0.611-1.546c-0.396-1.055-0.767-2.118-1.117-3.191
	c-0.083-0.256-0.179-0.509-0.261-0.767c-0.439-1.394-0.839-2.802-1.198-4.223c-0.054-0.213-0.097-0.432-0.149-0.646
	c-0.289-1.19-0.553-2.388-0.785-3.594c-0.077-0.399-0.144-0.803-0.216-1.205c-0.183-1.04-0.346-2.085-0.487-3.134
	c-0.061-0.453-0.121-0.904-0.173-1.358c-0.122-1.053-0.216-2.112-0.295-3.174c-0.031-0.42-0.072-0.837-0.095-1.26
	c-0.085-1.467-0.137-2.939-0.137-4.418v-48.467h153.301v48.467c0,1.479-0.052,2.951-0.137,4.416
	c-0.024,0.423-0.066,0.843-0.097,1.265c-0.079,1.061-0.173,2.118-0.295,3.17c-0.052,0.456-0.113,0.907-0.173,1.36
	c-0.14,1.049-0.302,2.091-0.486,3.129c-0.072,0.404-0.14,0.809-0.217,1.211c-0.232,1.202-0.495,2.395-0.783,3.581
	c-0.054,0.219-0.097,0.441-0.152,0.658c-0.359,1.42-0.758,2.827-1.196,4.22c-0.082,0.259-0.177,0.512-0.261,0.77
	c-0.35,1.071-0.719,2.133-1.116,3.185c-0.197,0.523-0.407,1.04-0.615,1.557c-0.304,0.758-0.621,1.51-0.947,2.258
	c-0.273,0.62-0.548,1.236-0.837,1.847c-0.274,0.584-0.566,1.159-0.855,1.735c-0.36,0.715-0.714,1.433-1.095,2.134
	c-0.016,0.031-0.036,0.061-0.054,0.092c-1.162,2.13-2.42,4.199-3.771,6.199c-0.009,0.013-0.018,0.028-0.028,0.042
	c-0.657,0.971-1.338,1.923-2.036,2.861c-0.06,0.08-0.121,0.162-0.18,0.243c-3.655,4.868-7.874,9.289-12.561,13.163
	c-0.022,0.019-0.046,0.037-0.069,0.057C260.266,278.703,243.299,285.273,224.824,285.273L224.824,285.273z"/>
</svg>