<?xml version="1.0" encoding="iso-8859-1"?>
<!-- Uploaded to: SVG Repo, www.svgrepo.com, Generator: SVG Repo Mixer Tools -->
<svg height="800px" width="800px" version="1.1" id="Layer_1" xmlns="http://www.w3.org/2000/svg" xmlns:xlink="http://www.w3.org/1999/xlink" 
	 viewBox="0 0 508 508" xml:space="preserve">
<g>
	<path style="fill:#194F82;" d="M251.9,0c-76.3,0-138.4,62.1-138.4,138.4v153.8c0,7.8,6.3,14.1,14.1,14.1h85.6c0,0,0,0,0.1,0
		c16.2-0.7,19.2-20,6.5-26.7c-16-10.8-25.5-28.5-25.5-47.8v-71.2c5.7,0.6,11.8,0.9,18.3,0.9c34.4,0,74.3-8.2,96.9-13.7v84.8
		c-0.3,19.3-10.2,37.1-26.5,47.6c-10.9,6.6-7.7,25,7.6,26h85.6c7.8,0,14.1-6.3,14.1-14.1V138.4C390.3,62.1,328.2,0,251.9,0z
		 M362.1,278.1h-37.9c8.5-13.3,13.3-28.8,13.5-45.2V129.7c-0.4-9.9-8.9-15.9-18-13.6c-0.6,0.2-60.9,17.2-107.1,17.2
		c-11.6,0-21.2-1.1-28.5-3.2c-8.7-2.6-17.5,3.3-18,13.6v88.1c0,16.7,4.8,32.7,13.5,46.2h-37.9V138.4c0-60.8,49.4-110.2,110.2-110.2
		s110.2,49.4,110.2,110.2V278.1z"/>
	<path style="fill:#194F82;" d="M459,373c-20.4-28.4-92.8-43.7-149.9-51.5c-6-0.8-11.9,2.3-14.6,7.7L254,411.1l-40.5-81.8
		c-2.7-5.4-8.5-8.5-14.6-7.7c-57.1,7.8-129.5,23-149.9,51.5c-18.2,25.4-6.5,100.8-2.4,123.3c1.2,6.7,7.1,11.6,13.9,11.6h387
		c6.8,0,12.7-4.9,13.9-11.6C465.5,473.9,477.2,398.5,459,373z M435.5,479.8H72.4c-0.9-6-1.7-12.1-2.4-18.2h34.6
		c7.8,0,14.1-6.3,14.1-14.1c0-7.8-6.3-14.1-14.1-14.1H67.8c-0.2-4.4-0.3-8.6-0.3-12.6h60.2c7.8,0,14.1-6.3,14.1-14.1
		c0-7.8-6.3-14.1-14.1-14.1H70.5c0.4-1.2,0.9-2.2,1.5-3c10.2-14.2,57.1-29.1,120.8-38.5l48.6,98.2c4.7,9.4,18.7,11.3,25.3,0
		l48.7-98.2c63.7,9.5,110.6,24.4,120.8,38.5C442.9,399.1,441.3,441.6,435.5,479.8z"/>
</g>
<path style="fill:#FFC10D;" d="M166.1,231.9v-88.1c0.5-10.3,9.4-16.2,18-13.6c7.4,2.1,17,3.2,28.5,3.2c46.3,0,106.5-17.1,107.1-17.2
	c9.1-2.4,17.6,3.7,18,13.6V233c-0.2,16.3-5,31.9-13.5,45.2h37.9V138.4c0-60.8-49.4-110.2-110.2-110.2S141.7,77.6,141.7,138.4v139.7
	h37.9C170.9,264.5,166.1,248.6,166.1,231.9z"/>
<path style="fill:#56ACE0;" d="M127.6,420.7H67.4c0,4,0.1,8.2,0.3,12.6h36.9c7.8,0,14.1,6.3,14.1,14.1c0,7.8-6.3,14.1-14.1,14.1H70
	c0.7,6.1,1.5,12.2,2.4,18.2h363.1c5.8-38.2,7.4-80.7,0.5-90.3c-10.2-14.2-57.1-29.1-120.8-38.5l-48.7,98.2
	c-6.6,11.3-20.6,9.4-25.3,0L192.7,351c-63.7,9.5-110.6,24.4-120.8,38.5c-0.6,0.8-1,1.8-1.5,3h57.1c7.8,0,14.1,6.3,14.1,14.1
	C141.7,414.4,135.4,420.7,127.6,420.7z"/>
</svg>