<?xml version="1.0" encoding="iso-8859-1"?>
<!-- Uploaded to: SVG Repo, www.svgrepo.com, Generator: SVG Repo Mixer Tools -->
<svg height="800px" width="800px" version="1.1" id="Layer_1" xmlns="http://www.w3.org/2000/svg" xmlns:xlink="http://www.w3.org/1999/xlink" 
	 viewBox="0 0 512 512" xml:space="preserve">
<path style="fill:#F4B2B0;" d="M350.18,52.816c-5.616-5.59-11.645-10.649-18.059-15.097C310.759,22.847,285.131,14.561,256,14.561
	c-29.12,0-54.759,8.285-76.123,23.157c-7.104,4.939-13.743,10.609-19.878,16.957c-32.505,33.594-50.909,85.856-50.909,147.467
	c0,72.369,58.318,118.335,58.318,118.335l36.308-30.865c-24.808-16.791-41.115-45.191-41.115-77.402v-64.646h186.796v64.645
	c0,32.209-16.306,60.608-41.111,77.399l36.317,30.87c0,0,58.305-43.751,58.305-118.335
	C402.908,139.402,383.814,86.329,350.18,52.816z"/>
<path style="fill:#B3404A;" d="M404.476,394.49c-8.042,0-14.561,6.519-14.561,14.561v73.827H122.083v-73.827
	c0-32.898,12.393-61.208,32.986-79.938c1.826,1.602,3.01,2.55,3.326,2.799c5.443,4.291,13.162,4.148,18.445-0.342l28.378-24.126
	c15.147,8.109,32.432,12.724,50.781,12.724c18.35,0,35.639-4.614,50.787-12.725l28.387,24.129c2.711,2.305,6.068,3.466,9.433,3.466
	c3.068,0,6.142-0.967,8.738-2.914c2.618-1.966,64.126-49.051,64.126-129.981c0-66.313-20.247-123.007-57.017-159.646
	c-6.264-6.235-13.005-11.867-20.011-16.728C315.879,8.67,287.467,0,256,0s-59.879,8.67-84.436,25.763
	c-7.832,5.446-15.247,11.768-22.03,18.785c-35.471,36.659-55.005,92.627-55.005,157.593c0,47.369,22.286,84.055,40.547,106.166
	c-26.139,24.208-42.115,60.064-42.115,100.743v88.388c0,8.042,6.519,14.561,14.561,14.561h296.956
	c8.042,0,14.561-6.519,14.561-14.561v-88.388C419.038,401.01,412.518,394.49,404.476,394.49z M205.912,273.043
	c-0.017-0.015-0.036-0.029-0.054-0.045c-4.83-3.99-9.175-8.545-12.941-13.561c-0.052-0.07-0.105-0.141-0.159-0.213
	c-2.733-3.667-5.14-7.588-7.212-11.704c-0.29-0.578-0.582-1.153-0.858-1.739c-0.301-0.638-0.59-1.284-0.875-1.932
	c-0.332-0.757-0.652-1.519-0.96-2.286c-0.218-0.542-0.438-1.083-0.645-1.632c-0.4-1.064-0.775-2.139-1.128-3.221
	c-0.093-0.282-0.197-0.561-0.287-0.845c-0.45-1.428-0.859-2.871-1.226-4.329c-0.058-0.23-0.105-0.463-0.16-0.695
	c-0.296-1.214-0.564-2.436-0.801-3.667c-0.08-0.416-0.151-0.836-0.224-1.255c-0.188-1.064-0.354-2.135-0.498-3.211
	c-0.063-0.467-0.125-0.933-0.179-1.404c-0.125-1.082-0.223-2.171-0.303-3.263c-0.032-0.432-0.074-0.862-0.099-1.296
	c-0.087-1.509-0.14-3.023-0.14-4.545v-50.085h157.673v50.085c0,1.522-0.054,3.035-0.14,4.543c-0.025,0.435-0.067,0.866-0.099,1.3
	c-0.08,1.091-0.178,2.178-0.303,3.259c-0.054,0.47-0.116,0.936-0.179,1.404c-0.144,1.076-0.31,2.148-0.499,3.214
	c-0.073,0.416-0.144,0.834-0.224,1.248c-0.239,1.235-0.508,2.461-0.804,3.68c-0.055,0.226-0.1,0.456-0.157,0.681
	c-0.368,1.459-0.779,2.905-1.229,4.338c-0.086,0.272-0.185,0.537-0.274,0.808c-0.358,1.095-0.737,2.183-1.142,3.26
	c-0.204,0.539-0.419,1.072-0.635,1.606c-0.312,0.778-0.636,1.549-0.973,2.317c-0.281,0.639-0.566,1.277-0.863,1.908
	c-0.281,0.597-0.58,1.185-0.875,1.775c-0.371,0.737-0.735,1.478-1.13,2.202c-0.016,0.031-0.035,0.058-0.051,0.089
	c-1.198,2.197-2.499,4.333-3.894,6.4c-0.006,0.007-0.01,0.016-0.016,0.023c-0.676,1-1.378,1.982-2.098,2.949
	c-0.061,0.082-0.121,0.163-0.182,0.245c-3.76,5.006-8.099,9.554-12.92,13.539c-0.025,0.02-0.049,0.041-0.074,0.061
	c-13.626,11.235-31.077,17.992-50.076,17.992C236.995,291.044,219.54,284.284,205.912,273.043z M170.467,64.795
	c5.476-5.666,11.438-10.752,17.727-15.125C207.782,36.036,230.595,29.122,256,29.122s48.218,6.914,67.825,20.562
	c5.621,3.898,11.033,8.425,16.079,13.446c31.24,31.129,48.445,80.497,48.445,139.012c0,49.406-29.08,84.376-43.963,99.037
	l-13.348-11.346c11.789-11.393,20.758-25.252,26.338-40.48c0.336-0.916,0.633-1.851,0.945-2.778c0.245-0.73,0.511-1.45,0.741-2.186
	c3.182-10.168,4.9-20.977,4.9-32.179v-64.646c0-8.042-6.519-14.561-14.561-14.561H162.601c-8.042,0-14.561,6.519-14.561,14.561
	v64.646c0,11.202,1.718,22.011,4.898,32.177c0.245,0.783,0.527,1.552,0.789,2.33c0.297,0.878,0.577,1.765,0.896,2.634
	c5.58,15.231,14.551,29.093,26.343,40.487l-13.16,11.189c-14.976-15.199-44.155-50.964-44.155-98.884
	C123.652,144.773,140.276,95.998,170.467,64.795z"/>
</svg>